<svg width="746" height="677" viewBox="0 0 746 677" fill="none" xmlns="http://www.w3.org/2000/svg">
<g id="bg4 1">
<g clip-path="url(#clip0)">
<path id="Vector" d="M137.764 676.949C213.849 676.949 275.528 667.994 275.528 656.949C275.528 645.903 213.849 636.949 137.764 636.949C61.6789 636.949 0 645.903 0 656.949C0 667.994 61.6789 676.949 137.764 676.949Z" fill="#E6E6E6"/>
<path id="Vector_2" d="M217.852 649.111C201.386 647.717 179.93 635.556 181.343 614.658C182.043 604.294 189.087 596.692 196.736 591.358C207.316 583.981 219.967 580.028 232.371 577.783C246.678 575.193 261.274 574.864 275.792 574.64C290.123 574.419 304.433 574.021 318.724 573.026C346.882 571.059 374.886 567.303 402.567 561.781C429.712 556.381 456.49 549.281 482.744 540.522C495.773 536.169 508.662 531.387 521.411 526.175C533.309 521.303 545.231 516.268 556.515 509.938C571.382 501.598 595.292 486.049 590.178 463.938C587.466 452.215 577.696 443.881 568.242 438.433C556.81 431.845 544.121 428.211 531.7 424.695C473.923 408.339 416.077 392.281 358.266 376.076C344.774 372.293 331.217 368.67 317.972 363.891C305.572 359.416 293.094 353.957 282.459 345.514C273.171 338.139 264.356 327.744 262.89 314.988C261.675 304.41 266.291 294.669 272.522 287.012C287.949 268.056 312.034 257.956 334.148 251.38C361.622 243.211 390.097 239.38 417.609 231.358C439.824 224.881 463.163 215.022 479.518 197.11C485.789 190.242 490.997 181.79 492.345 172.022C493.664 162.455 490.746 153.012 485.386 145.255C479.059 136.1 470.031 129.347 460.783 124.068C449.872 117.99 438.164 113.468 426 110.632C399.769 104.224 372.888 102.678 346.358 98.6267C333.348 96.64 320.163 94.315 307.689 89.5661C297.12 85.5427 285.42 79.7751 278.491 69.781C264.194 49.1609 289.363 32.3115 303.96 25.2438C313.983 20.5637 324.324 16.5982 334.907 13.3771C337.155 12.658 335.665 9.00253 333.427 9.71827C322.39 13.249 311.384 17.1126 300.951 22.338C292.167 26.7376 283.224 32.1675 276.955 40.277C271.689 47.0879 269.062 56.1086 271.897 64.8716C275.252 75.2397 284.69 82.301 293.317 87.1734C304.724 93.6167 317.213 97.1424 329.738 99.6991C342.929 102.392 356.256 104.078 369.569 105.699C396.173 108.939 423.831 111.291 448.961 122.446C466.54 130.249 491.12 146.014 488.868 169.983C487.869 180.623 481.685 189.673 474.636 196.668C466.118 205.121 455.91 211.49 445.382 216.636C396.288 240.637 338.069 236.106 291.126 266.032C275.165 276.207 256.424 293.336 259.309 315.905C260.808 327.629 267.96 337.6 276.155 345.137C285.969 354.164 297.913 360.205 309.881 364.985C322.541 370.042 335.602 373.761 348.631 377.422C363.131 381.495 377.633 385.561 392.138 389.618L480.165 414.293L523.902 426.552C537.25 430.294 550.893 433.77 563.442 440.216C573.717 445.495 586.263 454.738 587.111 468.208C587.784 478.907 580.276 487.709 573.162 493.878C563.949 501.865 553.173 507.684 542.357 512.771C529.88 518.638 517.095 523.835 504.238 528.692C477.755 538.676 450.641 546.898 423.074 553.304C395.419 559.751 367.381 564.426 339.131 567.302C324.851 568.755 310.53 569.739 296.168 570.255C281.363 570.783 266.514 570.518 251.734 571.51C238.365 572.407 225.018 574.425 212.361 579.072C201.793 582.951 190.865 588.796 183.728 598.28C181.197 601.615 179.396 605.445 178.442 609.521C177.488 613.597 177.402 617.829 178.191 621.94C180.008 630.214 184.625 637.608 191.261 642.873C198.75 648.817 207.861 652.358 217.399 653.031C219.751 653.23 220.215 649.311 217.852 649.111V649.111Z" fill="#E6E6E6"/>
<path id="Vector_3" d="M113.62 103.449L112.62 128.449L144.62 150.449L149.62 103.449H113.62Z" fill="#FFB9B9"/>
<path id="Vector_4" d="M188.62 231.449L199.62 263.449L221.62 339.449C221.62 339.449 243.62 376.449 224.62 377.449C205.62 378.449 209.62 344.449 209.62 344.449L178.62 290.449L171.62 233.449L188.62 231.449Z" fill="#FFB9B9"/>
<path id="Vector_5" d="M178.354 603.11C178.354 603.11 185.654 623.028 193.097 632.651C200.54 642.274 189.089 648.429 189.089 648.429L152.722 644.135C152.722 644.135 154.913 612.304 152.073 607.019L178.354 603.11Z" fill="#FFB9B9"/>
<path id="Vector_6" d="M186.997 638.2C186.997 638.2 192.833 623.711 196.147 629.877C199.461 636.042 212.662 643.706 212.662 643.706C212.662 643.706 247.741 649.827 221.657 660.441C195.574 671.055 179.191 661.696 179.191 661.696C179.191 661.696 154.605 662.423 151.764 657.138C148.923 651.853 148.113 631.541 153.23 634.623C158.348 637.705 181.437 646.865 186.997 638.2Z" fill="#2F2E41"/>
<path id="Vector_7" d="M109.62 577.449C109.62 577.449 106.62 598.449 108.62 610.449C110.62 622.449 97.6201 622.449 97.6201 622.449L67.6201 601.449C67.6201 601.449 84.6201 574.449 84.6201 568.449L109.62 577.449Z" fill="#FFB9B9"/>
<path id="Vector_8" d="M184.62 351.449C184.62 351.449 176.62 448.449 160.62 484.449C144.62 520.449 119.62 590.449 119.62 590.449L77.6201 575.449C77.6201 575.449 97.6201 484.449 115.62 471.449L127.62 326.449L184.62 351.449Z" fill="#2F2E41"/>
<path id="Vector_9" d="M169.62 353.449L155.62 406.449L185.62 604.449L147.62 613.449L99.6201 390.449C99.6201 390.449 84.6201 361.449 93.6201 333.449C102.62 305.449 169.62 353.449 169.62 353.449Z" fill="#2F2E41"/>
<path id="Vector_10" d="M100.62 612.449C100.62 612.449 112.62 602.449 112.62 609.449C112.62 616.449 120.62 629.449 120.62 629.449C120.62 629.449 148.62 651.449 120.62 648.449C92.62 645.449 82.62 629.449 82.62 629.449C82.62 629.449 60.62 618.449 60.62 612.449C60.62 606.449 69.5224 588.174 72.5712 593.311C75.62 598.449 91.62 617.449 100.62 612.449Z" fill="#2F2E41"/>
<path id="Vector_11" d="M130.62 116.449C147.189 116.449 160.62 103.017 160.62 86.4488C160.62 69.8803 147.189 56.4488 130.62 56.4488C114.052 56.4488 100.62 69.8803 100.62 86.4488C100.62 103.017 114.052 116.449 130.62 116.449Z" fill="#FFB9B9"/>
<path id="Vector_12" d="M110.62 116.449L142.62 141.449L148.62 127.449L155.62 139.449C155.62 139.449 190.62 158.449 190.62 166.449C190.62 174.449 191.62 351.449 191.62 351.449C191.62 351.449 160.62 381.449 130.62 339.449C100.62 297.449 90.6201 360.449 90.6201 360.449L82.6201 237.449L70.6201 157.449C70.6201 157.449 72.6201 153.449 78.6201 149.449C84.6201 145.449 105.62 129.449 105.62 129.449L110.62 116.449Z" fill="#E6E6E6"/>
<path id="Vector_13" d="M178.62 160.449L191.62 165.449L203.62 233.449L176.62 239.449L178.62 160.449Z" fill="#E6E6E6"/>
<path id="Vector_14" d="M50.62 227.449L41.62 273.449L102.62 335.449C102.62 335.449 117.62 365.449 129.62 352.449C141.62 339.449 108.62 322.449 108.62 322.449L70.62 260.449L79.62 238.449L50.62 227.449Z" fill="#FFB9B9"/>
<path id="Vector_15" d="M95.8126 66.9893C95.8126 66.9893 90.2547 54.7617 104.705 49.2037C104.705 49.2037 116.933 29.195 141.388 42.5342C141.388 42.5342 158.062 49.2037 158.062 66.9893C158.062 84.7749 163.62 88.1096 163.62 88.1096C163.62 88.1096 155.343 79.6184 153.12 72.9488C150.897 66.2792 133.607 64.7661 126.937 71.4357C120.268 78.1053 103.594 76.9937 103.594 76.9937L104.705 101.449C104.705 101.449 99.1475 86.9981 96.9243 86.9981C94.7011 86.9981 92.4779 66.9893 95.8126 66.9893Z" fill="#2F2E41"/>
<path id="Vector_16" d="M81.62 157.449H70.62L44.62 233.449L80.62 244.449L100.62 194.449L81.62 157.449Z" fill="#E6E6E6"/>
<path id="Vector_17" opacity="0.3" d="M128.742 565.406L116.12 471.949L134.15 550.869L128.742 565.406Z" fill="black"/>
<path id="Vector_18" d="M220.705 359.891C219.777 359.892 218.887 360.261 218.231 360.918C217.575 361.574 217.206 362.463 217.205 363.391V556.949C217.206 557.877 217.575 558.766 218.231 559.422C218.887 560.079 219.777 560.448 220.705 560.449H742.12C743.048 560.448 743.938 560.079 744.594 559.422C745.25 558.766 745.619 557.877 745.62 556.949V363.391C745.619 362.463 745.25 361.574 744.594 360.918C743.938 360.261 743.048 359.892 742.12 359.891H220.705Z" fill="#E6E6E6"/>
<path id="Vector_19" d="M237.289 374.773C236.626 374.774 235.991 375.037 235.522 375.506C235.053 375.975 234.79 376.61 234.789 377.273V543.067C234.79 543.73 235.053 544.365 235.522 544.834C235.991 545.303 236.626 545.566 237.289 545.567H725.536C726.199 545.566 726.834 545.303 727.303 544.834C727.772 544.365 728.036 543.73 728.036 543.067V377.273C728.036 376.61 727.772 375.975 727.303 375.506C726.834 375.037 726.199 374.774 725.536 374.773H237.289Z" fill="white"/>
<path id="Vector_20" d="M326.266 140.75C324.652 140.775 323.115 141.439 321.99 142.596C320.865 143.753 320.245 145.309 320.266 146.922V286.828C320.245 288.441 320.865 289.997 321.99 291.154C323.115 292.311 324.652 292.975 326.266 293H637.266C638.879 292.975 640.417 292.311 641.542 291.154C642.667 289.997 643.287 288.441 643.266 286.828V146.922C643.287 145.309 642.667 143.753 641.542 142.596C640.417 141.439 638.879 140.775 637.266 140.75H326.266Z" fill="#E6E6E6"/>
<path id="Vector_21" d="M326.266 -1.52588e-05C322.957 -1.52588e-05 320.266 3.03743 320.266 6.77142V104.229C320.266 107.963 322.957 111 326.266 111H637.266C640.574 111 643.266 107.963 643.266 104.229V6.77139C643.266 3.03739 640.574 -3.05176e-05 637.266 -3.05176e-05L326.266 -1.52588e-05Z" fill="#E6E6E6"/>
<path id="Vector_22" d="M604.766 25.25H358.766V39.25H604.766V25.25Z" fill="white"/>
<path id="Vector_23" d="M605.266 54.75H359.266V61.25H605.266V54.75Z" fill="white"/>
<path id="Vector_24" d="M605.266 77.75H359.266V84.25H605.266V77.75Z" fill="white"/>
<path id="Vector_25" d="M504.928 293.25H618.139C618.86 293.25 619.565 293.036 620.164 292.636C620.763 292.235 621.23 291.666 621.506 291C621.782 290.334 621.854 289.602 621.714 288.895C621.573 288.188 621.226 287.539 620.716 287.029L548.26 214.572C547.576 213.89 546.649 213.507 545.683 213.507C544.717 213.507 543.79 213.89 543.106 214.572L525.088 232.59C524.378 233.3 523.536 233.863 522.608 234.248C521.681 234.632 520.687 234.83 519.683 234.83C518.679 234.83 517.685 234.632 516.758 234.248C515.83 233.863 514.988 233.3 514.278 232.59L457.843 176.155C457.159 175.473 456.232 175.09 455.266 175.09C454.3 175.09 453.373 175.473 452.689 176.155L342.315 286.529C341.805 287.039 341.458 287.688 341.318 288.395C341.177 289.102 341.25 289.834 341.525 290.5C341.801 291.166 342.268 291.735 342.868 292.136C343.467 292.536 344.171 292.75 344.892 292.75H505.073L504.928 293.25Z" fill="white"/>
<path id="Vector_26" d="M370.266 187.75C377.998 187.75 384.266 181.482 384.266 173.75C384.266 166.018 377.998 159.75 370.266 159.75C362.534 159.75 356.266 166.018 356.266 173.75C356.266 181.482 362.534 187.75 370.266 187.75Z" fill="white"/>
<path id="Vector_27" d="M314.12 471.449C313.722 471.449 313.341 471.607 313.06 471.889C312.779 472.17 312.62 472.551 312.62 472.949V482.949C312.62 483.347 312.779 483.728 313.06 484.009C313.341 484.29 313.722 484.448 314.12 484.449H656.12C656.518 484.448 656.899 484.29 657.18 484.009C657.461 483.728 657.62 483.347 657.62 482.949V472.949C657.62 472.551 657.461 472.17 657.18 471.889C656.899 471.607 656.518 471.449 656.12 471.449H314.12Z" fill="#E6E6E6"/>
<path id="Vector_28" d="M326.266 325.75C324.652 325.775 323.115 326.439 321.99 327.596C320.865 328.753 320.245 330.309 320.266 331.922V471.828C320.245 473.441 320.865 474.997 321.99 476.154C323.115 477.311 324.652 477.975 326.266 478H637.266C638.879 477.975 640.417 477.311 641.542 476.154C642.667 474.997 643.287 473.441 643.266 471.828V331.922C643.287 330.309 642.667 328.753 641.542 327.596C640.417 326.439 638.879 325.775 637.266 325.75H326.266Z" fill="#3F3D56"/>
<path id="Vector_29" d="M504.928 478.25H618.139C618.86 478.25 619.565 478.036 620.164 477.636C620.763 477.235 621.23 476.666 621.506 476C621.782 475.334 621.854 474.601 621.713 473.894C621.573 473.187 621.226 472.538 620.716 472.028L548.26 399.572C547.576 398.89 546.649 398.507 545.683 398.507C544.717 398.507 543.79 398.89 543.106 399.572L525.088 417.59C524.378 418.3 523.536 418.863 522.608 419.248C521.681 419.632 520.687 419.83 519.683 419.83C518.679 419.83 517.685 419.632 516.757 419.248C515.83 418.863 514.987 418.3 514.278 417.59L457.843 361.155C457.159 360.473 456.232 360.09 455.266 360.09C454.3 360.09 453.373 360.473 452.689 361.155L342.315 471.528C341.805 472.038 341.459 472.687 341.318 473.394C341.177 474.101 341.25 474.834 341.525 475.5C341.801 476.166 342.268 476.735 342.868 477.136C343.467 477.536 344.171 477.75 344.892 477.75H505.073L504.928 478.25Z" fill="#4CC2C0"/>
<path id="Vector_30" d="M370.266 372.75C377.998 372.75 384.266 366.482 384.266 358.75C384.266 351.018 377.998 344.75 370.266 344.75C362.534 344.75 356.266 351.018 356.266 358.75C356.266 366.482 362.534 372.75 370.266 372.75Z" fill="#4CC2C0"/>
</g>
</g>
<defs>
<clipPath id="clip0">
<rect width="745.62" height="676.949" fill="white"/>
</clipPath>
</defs>
</svg>
